<?xml version="1.0" encoding="utf-8"?>
<!-- Generator: Adobe Illustrator 21.0.2, SVG Export Plug-In . SVG Version: 6.00 Build 0)  -->
<svg version="1.1" id="Layer_1" xmlns="http://www.w3.org/2000/svg" xmlns:xlink="http://www.w3.org/1999/xlink" x="0px" y="0px"
	 viewBox="0 0 100 100" style="enable-background:new 0 0 100 100;" xml:space="preserve">
<style type="text/css">
	.st0{stroke:#000000;stroke-width:4;stroke-linecap:round;stroke-linejoin:round;stroke-miterlimit:10;}
</style>
<path class="st0" d="M39.9,49.9c0.2,0,0.3-0.1,0.4-0.1c4.3-0.7,8.5-1.9,12.4-3.7c2.4-1.1,4.7-2.5,6.4-4.4c1.5-1.6,2.5-3.3,3.4-5.2
	c1.4-2.9,2.3-5.9,3.1-8.9c0.7-3,1.3-6,1.7-9.1c0.2-1.7,0.4-3.3,0.5-5c0,0,0-0.1,0.1-0.1c0.1,1,0.2,1.9,0.3,2.9
	c0.5,5.5,1.4,11,3.2,16.3c0.8,2.3,1.7,4.5,3.1,6.7c1.4,2.2,3.4,3.9,5.8,5.4c3.8,2.3,8,3.7,12.5,4.7c1,0.2,2,0.4,3,0.6
	c-0.9,0.2-1.7,0.3-2.5,0.4c-3.9,0.8-7.6,1.8-11.1,3.5c-2.6,1.2-4.9,2.8-6.6,4.9c-1.4,1.8-2.3,3.7-3.1,5.8c-1.4,3.6-2.4,7.4-3.1,11.2
	c-0.6,3.4-1.1,6.9-1.4,10.3c0,0.1,0,0.2-0.1,0.3c0-0.1-0.1-0.1-0.1-0.2c-0.5-3.3-0.9-6.6-1.5-9.8c-0.8-4.2-1.8-8.3-3.4-12.3
	c-0.8-1.9-1.6-3.7-3-5.3c-1.3-1.6-3.1-2.8-5-3.9c-3.5-2-7.3-3.2-11.4-4.2c-1-0.2-2.1-0.4-3.1-0.6C40.3,50,40.2,50,39.9,49.9z"/>
<path class="st0" d="M4.3,66.4c1.3-0.3,2.6-0.5,3.8-0.8c2.8-0.7,5.4-1.6,7.7-3c2.3-1.3,3.9-3.2,5-5.3c1.3-2.6,2.2-5.3,2.8-8
	c0.6-2.7,1-5.5,1.3-8.2c0-0.2,0-0.4,0.1-0.5c0.1,0.6,0.1,1.2,0.2,1.8c0.4,3.9,1.1,7.8,2.3,11.5c0.5,1.6,1.2,3.2,2.2,4.7
	c1.4,2.1,3.5,3.7,6,4.9c3,1.4,6.2,2.3,9.6,2.8c0.1,0,0.2,0,0.3,0c0,0,0,0,0.1,0.1c-0.2,0-0.3,0.1-0.4,0.1c-3,0.5-5.8,1.2-8.6,2.2
	c-3.9,1.5-6.5,3.8-7.9,7.1c-1.3,2.9-2.2,5.9-2.7,9c-0.4,2.4-0.7,4.8-1,7.2c0,0.1,0,0.2-0.1,0.3c-0.1-0.6-0.1-1.2-0.2-1.8
	c-0.6-4.4-1.4-8.8-3.1-13.1c-0.4-1-0.9-2-1.4-3c-1-2-2.8-3.4-4.9-4.6c-3.3-1.7-6.9-2.8-10.7-3.4C4.6,66.5,4.5,66.4,4.3,66.4z"/>
<path class="st0" d="M50.4,22c-0.9,0.2-1.7,0.3-2.5,0.5c-1.1,0.3-2.2,0.6-3.2,1c-2.3,0.9-3.8,2.3-4.6,4.2c-0.8,1.8-1.4,3.7-1.7,5.7
	c-0.2,1.4-0.4,2.8-0.6,4.2c0-0.1,0-0.2-0.1-0.3c-0.3-2.7-0.8-5.4-1.7-8c-0.4-1-0.9-2-1.4-3c-0.8-1.3-2.2-2.1-3.7-2.7
	c-1.8-0.8-3.6-1.3-5.6-1.6c-0.1,0-0.1,0-0.2,0c0,0,0,0,0,0c1-0.2,2-0.4,3-0.7c1.6-0.4,3.1-1,4.5-1.8c1.4-0.9,2.3-2.1,2.9-3.4
	c1-2,1.5-4.1,1.9-6.2c0.2-1,0.3-2.1,0.4-3.1c0-0.1,0-0.1,0.1-0.2c0.1,0.6,0.1,1.2,0.2,1.8c0.3,2.4,0.8,4.8,1.7,7.1
	c1,2.6,3.1,4.3,6.1,5.4c0.7,0.3,1.5,0.5,2.3,0.7C48.8,21.7,49.6,21.8,50.4,22z"/>
</svg>
